<svg width="18" height="22" viewBox="0 0 18 22" fill="none" xmlns="http://www.w3.org/2000/svg">
<path fill-rule="evenodd" clip-rule="evenodd" d="M5.75 5C5.75 3.20507 7.20507 1.75 9 1.75C10.7949 1.75 12.25 3.20507 12.25 5C12.25 6.79493 10.7949 8.25 9 8.25C7.20507 8.25 5.75 6.79493 5.75 5ZM9 0.25C6.37665 0.25 4.25 2.37665 4.25 5C4.25 7.62335 6.37665 9.75 9 9.75C11.6234 9.75 13.75 7.62335 13.75 5C13.75 2.37665 11.6234 0.25 9 0.25ZM2.77778 12.25C1.38172 12.25 0.25 13.3817 0.25 14.7778C0.25 18.6284 3.37157 21.75 7.22222 21.75H10.7778C14.6284 21.75 17.75 18.6284 17.75 14.7778C17.75 13.3817 16.6183 12.25 15.2222 12.25H2.77778ZM1.75 14.7778C1.75 14.2102 2.21015 13.75 2.77778 13.75H15.2222C15.7898 13.75 16.25 14.2102 16.25 14.7778C16.25 17.8 13.8 20.25 10.7778 20.25H7.22222C4.2 20.25 1.75 17.8 1.75 14.7778Z" fill="black"/>
</svg>
