<svg width="21" height="21" viewBox="0 0 21 21" fill="none" xmlns="http://www.w3.org/2000/svg">
<path fill-rule="evenodd" clip-rule="evenodd" d="M0 0.25H2.71922C3.52224 0.25 4.22221 0.79652 4.41697 1.57556L4.61789 2.37922C4.82098 2.29617 5.0444 2.25 5.28089 2.25H18.7193C19.8578 2.25 20.6932 3.31993 20.4171 4.42444L18.9171 10.4244C18.7223 11.2035 18.0224 11.75 17.2193 11.75H6.78089C6.70141 11.75 6.62293 11.7446 6.54586 11.7342L5.75566 14.1048C5.75191 14.1161 5.75 14.1279 5.75 14.1397C5.75 14.2007 5.79942 14.2501 5.86038 14.2501H19V15.7501H5.86038C4.97099 15.7501 4.25 15.0291 4.25 14.1397C4.25 13.9666 4.2779 13.7947 4.33264 13.6305L5.2563 10.8595C5.18068 10.7253 5.12191 10.5795 5.08314 10.4244L4.2725 7.18187L4.27239 7.1819L2.96176 1.93937C2.93394 1.82807 2.83394 1.75 2.71922 1.75H0V0.25ZM5.28089 3.75C5.11825 3.75 4.99891 3.90285 5.03836 4.06063L6.53836 10.0606C6.56618 10.1719 6.66617 10.25 6.78089 10.25H17.2193C17.3341 10.25 17.4341 10.1719 17.4619 10.0606L18.9619 4.06063C19.0013 3.90285 18.882 3.75 18.7193 3.75H5.28089ZM9 19C9 20.1046 8.10457 21 7 21C5.89543 21 5 20.1046 5 19C5 17.8954 5.89543 17 7 17C8.10457 17 9 17.8954 9 19ZM17 21C18.1046 21 19 20.1046 19 19C19 17.8954 18.1046 17 17 17C15.8954 17 15 17.8954 15 19C15 20.1046 15.8954 21 17 21Z" fill="black"/>
</svg>
