<svg width="22" height="22" viewBox="0 0 22 22" fill="none" xmlns="http://www.w3.org/2000/svg">
<path fill-rule="evenodd" clip-rule="evenodd" d="M11.0598 0.250087C7.28765 0.234932 3.78213 2.19212 1.82014 5.40999C-0.141402 8.62714 -0.273592 12.6346 1.47159 15.9736L1.67059 16.3615L1.67049 16.3616L1.67642 16.3727C1.74341 16.498 1.75947 16.6439 1.72182 16.7804C1.42936 17.5603 1.18459 18.3572 0.988846 19.1667C0.974891 19.2244 0.967839 19.2836 0.967839 19.343C0.967839 19.5764 0.992666 19.9523 1.23637 20.2661C1.52015 20.6315 1.93493 20.7195 2.27821 20.7119C2.32703 20.7108 2.37562 20.7049 2.4233 20.6944C3.20377 20.522 3.97256 20.3007 4.72508 20.0317C4.86743 19.9973 5.01688 20.0065 5.15389 20.0581C5.2646 20.1133 5.4375 20.2109 5.60864 20.3095L5.71516 20.371C5.76183 20.398 5.80537 20.4232 5.8398 20.4429C5.8702 20.4604 5.90119 20.4779 5.92704 20.492C5.93887 20.4984 5.95778 20.5085 5.9784 20.5185L5.99488 20.5263C9.94023 22.5861 14.7502 22.0089 18.0947 19.071C21.4474 16.1258 22.6316 11.4195 21.0701 7.24156C19.5088 3.0638 15.5269 0.282913 11.0623 0.250097L11.0598 0.250087ZM3.10086 6.19087C4.78879 3.42247 7.8053 1.73746 11.0526 1.75007C14.896 1.77883 18.322 4.17293 19.6651 7.76667C21.0082 11.3606 19.99 15.4096 17.1048 17.944C14.2193 20.4787 10.0657 20.9722 6.66483 19.1839C6.65361 19.178 6.64225 19.1724 6.63077 19.1671L6.58519 19.1413C6.5521 19.1223 6.51458 19.1006 6.47164 19.0757L6.35756 19.0098C6.18532 18.9106 5.95071 18.7768 5.78288 18.6959C5.76921 18.6894 5.75534 18.6832 5.74129 18.6774C5.28497 18.4907 4.77955 18.4604 4.30419 18.5913C4.28577 18.5964 4.26755 18.6022 4.24957 18.6086C3.69098 18.8095 3.12261 18.9818 2.54666 19.1249C2.71152 18.5016 2.90794 17.887 3.13519 17.2835C3.14042 17.2695 3.14524 17.2555 3.14964 17.2413C3.31149 16.7193 3.25849 16.1546 3.00266 15.6719L2.80487 15.2864L2.8049 15.2864L2.80216 15.2811C1.2995 12.4081 1.41279 8.95948 3.10086 6.19087ZM8 11.5C8 12.3284 7.32843 13 6.5 13C5.67157 13 5 12.3284 5 11.5C5 10.6716 5.67157 10 6.5 10C7.32843 10 8 10.6716 8 11.5ZM11 13C11.8284 13 12.5 12.3284 12.5 11.5C12.5 10.6716 11.8284 10 11 10C10.1716 10 9.5 10.6716 9.5 11.5C9.5 12.3284 10.1716 13 11 13ZM17 11.5C17 12.3284 16.3284 13 15.5 13C14.6716 13 14 12.3284 14 11.5C14 10.6716 14.6716 10 15.5 10C16.3284 10 17 10.6716 17 11.5Z" fill="black"/>
</svg>
