<svg width="24" height="20" viewBox="0 0 24 20" fill="none" xmlns="http://www.w3.org/2000/svg">
<path fill-rule="evenodd" clip-rule="evenodd" d="M10 2.75H4V1.25H10V2.75ZM20 2.75H14V1.25H20V2.75Z" fill="black"/>
<path fill-rule="evenodd" clip-rule="evenodd" d="M0.25 13.75C0.25 12.9216 0.921573 12.25 1.75 12.25H9.25C10.0784 12.25 10.75 12.9216 10.75 13.75V14.5C10.75 17.3995 8.39949 19.75 5.5 19.75C2.60051 19.75 0.25 17.3995 0.25 14.5V13.75ZM9.25 13.75H1.75V14.5C1.75 16.5711 3.42893 18.25 5.5 18.25C7.57107 18.25 9.25 16.5711 9.25 14.5V13.75Z" fill="black"/>
<path fill-rule="evenodd" clip-rule="evenodd" d="M13.25 13.75C13.25 12.9216 13.9216 12.25 14.75 12.25H22.25C23.0784 12.25 23.75 12.9216 23.75 13.75V14.5C23.75 17.3995 21.3995 19.75 18.5 19.75C15.6005 19.75 13.25 17.3995 13.25 14.5V13.75ZM22.25 13.75H14.75V14.5C14.75 16.5711 16.4289 18.25 18.5 18.25C20.5711 18.25 22.25 16.5711 22.25 14.5V13.75Z" fill="black"/>
<path fill-rule="evenodd" clip-rule="evenodd" d="M4.56922 5.25H6.43078L10.75 12.6544V14H9.25V13.0599L5.56922 6.75H5.43078L1.75 13.0599V14H0.25V12.6544L4.56922 5.25Z" fill="black"/>
<path fill-rule="evenodd" clip-rule="evenodd" d="M17.5692 5.25H19.4308L23.75 12.6544V14H22.25V13.0599L18.5692 6.75H18.4308L14.75 13.0599V14H13.25V12.6544L17.5692 5.25Z" fill="black"/>
<path fill-rule="evenodd" clip-rule="evenodd" d="M9.25 2C9.25 1.0335 10.0335 0.25 11 0.25H13C13.9665 0.25 14.75 1.0335 14.75 2C14.75 2.9665 13.9665 3.75 13 3.75H11C10.0335 3.75 9.25 2.9665 9.25 2ZM11 1.75C10.8619 1.75 10.75 1.86193 10.75 2C10.75 2.13807 10.8619 2.25 11 2.25H13C13.1381 2.25 13.25 2.13807 13.25 2C13.25 1.86193 13.1381 1.75 13 1.75H11Z" fill="black"/>
</svg>
