<svg width="22" height="18" viewBox="0 0 22 18" fill="none" xmlns="http://www.w3.org/2000/svg">
<path fill-rule="evenodd" clip-rule="evenodd" d="M12.25 5C12.25 4.0335 13.0335 3.25 14 3.25H17.4338C18.0485 3.25 18.6182 3.57252 18.9344 4.09963L21.5006 8.37662C21.6638 8.64859 21.75 8.95981 21.75 9.27698V14C21.75 14.9665 20.9665 15.75 20 15.75H19V14.25H20C20.1381 14.25 20.25 14.1381 20.25 14V9.27698C20.25 9.23167 20.2377 9.18721 20.2144 9.14836L17.6482 4.87138C17.603 4.79607 17.5216 4.75 17.4338 4.75H14C13.8619 4.75 13.75 4.86193 13.75 5V14C13.75 14.1381 13.8619 14.25 14 14.25H15V15.75H14C13.0335 15.75 12.25 14.9665 12.25 14V5Z" fill="black"/>
<path fill-rule="evenodd" clip-rule="evenodd" d="M13 8.25H21V9.75H13V8.25Z" fill="black"/>
<path fill-rule="evenodd" clip-rule="evenodd" d="M0.25 2C0.25 1.0335 1.0335 0.25 2 0.25H12C12.9665 0.25 13.75 1.0335 13.75 2V14C13.75 14.9665 12.9665 15.75 12 15.75H8V14.25H12C12.1381 14.25 12.25 14.1381 12.25 14V2C12.25 1.86193 12.1381 1.75 12 1.75H2C1.86193 1.75 1.75 1.86193 1.75 2V14C1.75 14.1381 1.86193 14.25 2 14.25H4V15.75H2C1.0335 15.75 0.25 14.9665 0.25 14V2Z" fill="black"/>
<path fill-rule="evenodd" clip-rule="evenodd" d="M6 13.75C5.30964 13.75 4.75 14.3096 4.75 15C4.75 15.6904 5.30964 16.25 6 16.25C6.69036 16.25 7.25 15.6904 7.25 15C7.25 14.3096 6.69036 13.75 6 13.75ZM3.25 15C3.25 13.4812 4.48122 12.25 6 12.25C7.51878 12.25 8.75 13.4812 8.75 15C8.75 16.5188 7.51878 17.75 6 17.75C4.48122 17.75 3.25 16.5188 3.25 15Z" fill="black"/>
<path fill-rule="evenodd" clip-rule="evenodd" d="M17 13.75C16.3096 13.75 15.75 14.3096 15.75 15C15.75 15.6904 16.3096 16.25 17 16.25C17.6904 16.25 18.25 15.6904 18.25 15C18.25 14.3096 17.6904 13.75 17 13.75ZM14.25 15C14.25 13.4812 15.4812 12.25 17 12.25C18.5188 12.25 19.75 13.4812 19.75 15C19.75 16.5188 18.5188 17.75 17 17.75C15.4812 17.75 14.25 16.5188 14.25 15Z" fill="black"/>
</svg>
