<svg width="22" height="22" viewBox="0 0 22 22" fill="none" xmlns="http://www.w3.org/2000/svg">
<path fill-rule="evenodd" clip-rule="evenodd" d="M11.3155 2.19025L11.7784 2.56685C12.5521 3.19624 13.5576 3.46566 14.5423 3.30744L15.1315 3.21277C15.3655 3.17518 15.5936 3.30692 15.678 3.52829L15.8907 4.0859C16.246 5.01782 16.9821 5.75388 17.914 6.10922L18.4716 6.32185C18.693 6.40626 18.8247 6.63444 18.7871 6.86835L18.6925 7.45757C18.5342 8.44231 18.8036 9.44778 19.433 10.2215L19.8096 10.6844C19.9591 10.8682 19.9591 11.1317 19.8096 11.3155L19.433 11.7784C18.8036 12.5521 18.5342 13.5576 18.6925 14.5423L18.7871 15.1315C18.8247 15.3655 18.693 15.5936 18.4716 15.678L17.914 15.8907C16.9821 16.246 16.246 16.9821 15.8907 17.914L15.678 18.4716C15.5936 18.693 15.3655 18.8247 15.1315 18.7871L14.5423 18.6925C13.5576 18.5342 12.5521 18.8036 11.7784 19.433L11.3155 19.8096C11.1317 19.9591 10.8682 19.9591 10.6844 19.8096L10.2215 19.433C9.44778 18.8036 8.44231 18.5342 7.45757 18.6925L6.86835 18.7871C6.63444 18.8247 6.40626 18.693 6.32185 18.4716L6.10922 17.914C5.75388 16.9821 5.01782 16.246 4.0859 15.8907L3.52829 15.678C3.30692 15.5936 3.17518 15.3655 3.21277 15.1315L3.30744 14.5423C3.46566 13.5576 3.19624 12.5521 2.56685 11.7784L2.19025 11.3155C2.04075 11.1317 2.04075 10.8682 2.19025 10.6844L2.56685 10.2215C3.19624 9.44778 3.46566 8.44231 3.30744 7.45757L3.21277 6.86835C3.17518 6.63444 3.30692 6.40626 3.52829 6.32185L4.0859 6.10922C5.01782 5.75388 5.75388 5.01782 6.10922 4.0859L6.32185 3.52829C6.40626 3.30692 6.63444 3.17518 6.86835 3.21277L7.45757 3.30744C8.44231 3.46566 9.44778 3.19624 10.2215 2.56685L10.6844 2.19025C10.8682 2.04075 11.1317 2.04075 11.3155 2.19025ZM9.73784 1.02664C10.473 0.428619 11.5269 0.428619 12.262 1.02664L12.725 1.40324C13.1671 1.76289 13.7417 1.91684 14.3044 1.82643L14.8936 1.73176C15.8292 1.58143 16.742 2.10839 17.0796 2.99386L17.2922 3.55148C17.4953 4.084 17.9159 4.5046 18.4484 4.70766L19.006 4.92028C19.8915 5.25792 20.4185 6.17064 20.2681 7.10631L20.1735 7.69552C20.083 8.25823 20.237 8.83279 20.5967 9.2749L20.9732 9.73784C21.5713 10.473 21.5713 11.5269 20.9732 12.262L20.5967 12.725C20.237 13.1671 20.083 13.7417 20.1735 14.3044L20.2681 14.8936C20.4185 15.8292 19.8915 16.742 19.006 17.0796L18.4484 17.2922C17.9159 17.4953 17.4953 17.9159 17.2922 18.4484L17.0796 19.006C16.742 19.8915 15.8292 20.4185 14.8936 20.2681L14.3044 20.1735C13.7417 20.083 13.1671 20.237 12.725 20.5967L12.262 20.9732C11.5269 21.5713 10.473 21.5713 9.73784 20.9732L9.2749 20.5967C8.83279 20.237 8.25823 20.083 7.69552 20.1735L7.10631 20.2681C6.17064 20.4185 5.25792 19.8915 4.92028 19.006L4.70766 18.4484C4.5046 17.9159 4.084 17.4953 3.55148 17.2922L2.99386 17.0796C2.10839 16.742 1.58143 15.8292 1.73176 14.8936L1.82643 14.3044C1.91684 13.7417 1.76289 13.1671 1.40324 12.725L1.02664 12.262C0.428619 11.5269 0.428619 10.473 1.02664 9.73784L1.40324 9.2749C1.76289 8.83279 1.91684 8.25823 1.82643 7.69552L1.73176 7.10631C1.58143 6.17064 2.10839 5.25792 2.99386 4.92028L3.55148 4.70766C4.084 4.5046 4.5046 4.084 4.70766 3.55148L4.92028 2.99386C5.25792 2.10839 6.17064 1.58143 7.10631 1.73176L7.69552 1.82643C8.25823 1.91684 8.83279 1.76289 9.2749 1.40324L9.73784 1.02664ZM8.5999 15.45L14.5999 7.45005L13.3999 6.55005L7.3999 14.55L8.5999 15.45ZM10 8.5C10 9.32843 9.32843 10 8.5 10C7.67157 10 7 9.32843 7 8.5C7 7.67157 7.67157 7 8.5 7C9.32843 7 10 7.67157 10 8.5ZM13.5 15C14.3284 15 15 14.3284 15 13.5C15 12.6716 14.3284 12 13.5 12C12.6716 12 12 12.6716 12 13.5C12 14.3284 12.6716 15 13.5 15Z" fill="black"/>
</svg>
