<svg width="41" height="35" viewBox="0 0 41 35" fill="none" xmlns="http://www.w3.org/2000/svg">
<path fill-rule="evenodd" clip-rule="evenodd" d="M22.1468 0.95724C21.3668 -0.319079 19.5132 -0.319081 18.7332 0.957238L0.296618 31.1262C-0.517932 32.4591 0.441342 34.1695 2.00343 34.1695H38.8766C40.4387 34.1695 41.3979 32.4591 40.5834 31.1262L22.1468 0.95724ZM20.5713 26C21.6759 26 22.5713 26.8954 22.5713 28C22.5713 29.1046 21.6759 30 20.5713 30H20.5H20.476H20.4047C19.3001 30 18.4047 29.1046 18.4047 28C18.4047 26.8954 19.3001 26 20.4047 26H20.476H20.5H20.5713ZM19 24V12H22V24H19Z" fill="black"/>
</svg>
