<svg width="22" height="20" viewBox="0 0 22 20" fill="none" xmlns="http://www.w3.org/2000/svg">
<path fill-rule="evenodd" clip-rule="evenodd" d="M1.53039 19.5304L19.5304 1.53039L18.4697 0.469727L14.9379 4.00157C13.7874 3.53854 12.4777 3.25 10.9999 3.25C4.52274 3.25 1.27405 8.79327 0.515952 10.2763C0.281791 10.7344 0.281793 11.2656 0.515952 11.7237C0.87692 12.4298 1.80254 14.0565 3.37248 15.567L0.469727 18.4697L1.53039 19.5304ZM4.43313 14.5063C3.04526 13.1806 2.20393 11.7303 1.85156 11.041C1.8423 11.0228 1.84033 11.0094 1.84033 11C1.84033 10.9906 1.8423 10.9772 1.85156 10.959C2.58827 9.51787 5.46233 4.75 10.9999 4.75C12.0086 4.75 12.9288 4.90817 13.7639 5.1756L11.8491 7.09031C11.5755 7.03115 11.2914 7 11 7C8.79086 7 7 8.79086 7 11C7 11.2914 7.03115 11.5755 7.09031 11.8491L4.43313 14.5063ZM12.219 10.8418L8.75185 14.3089C9.39255 14.7451 10.1665 15 11 15C13.2091 15 15 13.2091 15 11C15 10.59 14.9383 10.1945 14.8238 9.82212C14.5102 10.5166 13.8115 11 13 11C12.7229 11 12.459 10.9436 12.219 10.8418ZM10.9999 17.25C9.38646 17.25 7.99911 16.8452 6.82485 16.2359L5.71738 17.3434C7.15917 18.1739 8.91178 18.75 10.9999 18.75C17.4771 18.75 20.7258 13.2067 21.4839 11.7237C21.7181 11.2656 21.7181 10.7344 21.4839 10.2763C21.0472 9.42202 19.7841 7.22046 17.5535 5.50726L16.4812 6.57955C18.5261 8.08526 19.712 10.1055 20.1483 10.959C20.1576 10.9772 20.1596 10.9906 20.1596 11C20.1596 11.0094 20.1576 11.0228 20.1483 11.041C19.4116 12.4821 16.5376 17.25 10.9999 17.25Z" fill="black"/>
</svg>
