<svg width="22" height="16" viewBox="0 0 22 16" fill="none" xmlns="http://www.w3.org/2000/svg">
<path fill-rule="evenodd" clip-rule="evenodd" d="M1.85156 7.95905C2.58827 6.51787 5.46233 1.75 10.9999 1.75C16.5376 1.75 19.4116 6.51786 20.1483 7.95904C20.1576 7.97716 20.1596 7.99063 20.1596 8C20.1596 8.00937 20.1576 8.02284 20.1483 8.04095C19.4116 9.48213 16.5376 14.25 10.9999 14.25C5.46233 14.25 2.58827 9.48214 1.85156 8.04096C1.8423 8.02284 1.84033 8.00937 1.84033 8C1.84033 7.99063 1.8423 7.97716 1.85156 7.95905ZM10.9999 0.25C4.52274 0.25 1.27405 5.79327 0.515952 7.2763C0.281791 7.73437 0.281793 8.26563 0.515952 8.7237C1.27405 10.2067 4.52274 15.75 10.9999 15.75C17.4771 15.75 20.7258 10.2067 21.4839 8.7237C21.7181 8.26563 21.7181 7.73437 21.4839 7.2763C20.7258 5.79327 17.4771 0.25 10.9999 0.25ZM15 8C15 10.2091 13.2091 12 11 12C8.79086 12 7 10.2091 7 8C7 5.79086 8.79086 4 11 4C11.41 4 11.8055 4.06167 12.1779 4.17624C11.4834 4.48982 11 5.18846 11 6C11 7.10457 11.8954 8 13 8C13.8115 8 14.5102 7.51665 14.8238 6.82212C14.9383 7.19449 15 7.59004 15 8Z" fill="black"/>
</svg>
