<svg width="20" height="20" viewBox="0 0 20 20" fill="none" xmlns="http://www.w3.org/2000/svg">
<path fill-rule="evenodd" clip-rule="evenodd" d="M4 0.25C1.92893 0.25 0.25 1.92893 0.25 4V16C0.25 18.0711 1.92893 19.75 4 19.75H16C18.0711 19.75 19.75 18.0711 19.75 16V4C19.75 1.92893 18.0711 0.25 16 0.25H4ZM1.75 4C1.75 2.75736 2.75736 1.75 4 1.75H16C17.2426 1.75 18.25 2.75736 18.25 4V16C18.25 17.2426 17.2426 18.25 16 18.25H12V13H15V10H12V9C12 8.59087 12.1298 8.36649 12.2482 8.24816C12.3665 8.12983 12.5909 8 13 8H15V5H13C11.9091 5 10.8835 5.37017 10.1268 6.12684C9.37017 6.88351 9 7.90913 9 9V10H7V13H9V18.25H4C2.75736 18.25 1.75 17.2426 1.75 16V4Z" fill="black"/>
</svg>
