<svg width="22" height="20" viewBox="0 0 22 20" fill="none" xmlns="http://www.w3.org/2000/svg">
<path fill-rule="evenodd" clip-rule="evenodd" d="M9 0.25C7.48122 0.25 6.25 1.48122 6.25 3C6.25 3.45011 6.35814 3.87497 6.54985 4.25H0.25V9.75H1.26772C1.25604 9.83165 1.25 9.91512 1.25 10V18C1.25 18.9665 2.0335 19.75 3 19.75H19C19.9665 19.75 20.75 18.9665 20.75 18V10C20.75 9.91512 20.744 9.83165 20.7323 9.75H21.75V4.25H15.4501C15.6419 3.87497 15.75 3.45011 15.75 3C15.75 1.48122 14.5188 0.25 13 0.25C12.212 0.25 11.5014 0.581446 11 1.11253C10.4986 0.581446 9.78802 0.25 9 0.25ZM11.75 5.75H13H20.25V8.25H19H3H1.75V5.75H9H10.25H11.75ZM10.25 3V4.25H9C8.30964 4.25 7.75 3.69036 7.75 3C7.75 2.30964 8.30964 1.75 9 1.75C9.69036 1.75 10.25 2.30964 10.25 3ZM14.25 3C14.25 3.69036 13.6904 4.25 13 4.25H11.75V3C11.75 2.30964 12.3096 1.75 13 1.75C13.6904 1.75 14.25 2.30964 14.25 3ZM19 9.75C19.1381 9.75 19.25 9.86193 19.25 10V18C19.25 18.1381 19.1381 18.25 19 18.25H11.75V9.75H19ZM10.25 9.75H3C2.86193 9.75 2.75 9.86193 2.75 10V18C2.75 18.1381 2.86193 18.25 3 18.25H10.25V9.75Z" fill="black"/>
</svg>
