<svg width="20" height="19" viewBox="0 0 20 19" fill="none" xmlns="http://www.w3.org/2000/svg">
<path fill-rule="evenodd" clip-rule="evenodd" d="M14.0011 1.76222C15.0164 1.68359 16.1207 1.96822 17.0231 2.94057C18.8667 4.92693 18.4328 7.38605 17.0322 8.90374L9.99992 15.939L2.96762 8.90375C1.56708 7.38605 1.13316 4.92693 2.97671 2.94057C3.87915 1.96822 4.98344 1.68359 5.99873 1.76222C7.05027 1.84365 7.93354 2.30941 8.32523 2.73139L8.33338 2.74017L9.99992 4.42438L11.6665 2.74017L11.6746 2.73139C12.0663 2.30941 12.9496 1.84365 14.0011 1.76222ZM10.584 1.70152C11.276 0.962383 12.53 0.371658 13.8853 0.266694C15.2826 0.158479 16.8613 0.561207 18.1226 1.92017C20.6024 4.59213 19.9602 7.95391 18.1226 9.93395L18.1131 9.94415L9.99992 18.0608L1.88671 9.94415L1.87724 9.93395C0.0396576 7.95391 -0.602598 4.59213 1.87726 1.92017C3.13851 0.561207 4.71726 0.158479 6.11455 0.266694C7.46986 0.371658 8.72383 0.962383 9.41585 1.70152L9.99992 2.29179L10.584 1.70152Z" fill="black"/>
</svg>
