<svg width="20" height="20" viewBox="0 0 20 20" fill="none" xmlns="http://www.w3.org/2000/svg">
<path fill-rule="evenodd" clip-rule="evenodd" d="M11.7578 0.409811C9.51428 -0.00144759 7.19756 0.38689 5.21075 1.50726C3.79278 2.30686 2.60691 3.4432 1.75 4.8036V2H0.25V7.75H6V6.25H2.65138C3.38546 4.81147 4.52929 3.61359 5.94754 2.81383C7.62868 1.86583 9.58898 1.53724 11.4874 1.88523C13.3857 2.23322 15.102 3.23576 16.3376 4.71842C17.5732 6.20108 18.2499 8.07001 18.2499 10H19.7499C19.7499 7.7191 18.9502 5.51036 17.4899 3.75813C16.0297 2.00589 14.0014 0.82107 11.7578 0.409811ZM18.25 18V15.1962C17.375 16.5854 16.1576 17.7399 14.7022 18.5412C12.7141 19.6357 10.4064 20.0024 8.17686 19.578C5.94736 19.1537 3.93574 17.9648 2.48874 16.2164C1.04173 14.468 0.25 12.2695 0.25 10H1.75C1.75 11.9204 2.41993 13.7806 3.64432 15.26C4.8687 16.7394 6.57084 17.7454 8.45734 18.1045C10.3438 18.4636 12.2965 18.1533 13.9788 17.2271C15.4297 16.4284 16.6011 15.2146 17.3485 13.75H14V12.25H19.75V18H18.25ZM9.25 14V8H10.75V14H9.25ZM10 7C10.5523 7 11 6.55229 11 6C11 5.44772 10.5523 5 10 5C9.44771 5 9 5.44772 9 6C9 6.55229 9.44771 7 10 7Z" fill="black"/>
</svg>
