<svg width="18" height="20" viewBox="0 0 18 20" fill="none" xmlns="http://www.w3.org/2000/svg">
<path fill-rule="evenodd" clip-rule="evenodd" d="M3.42485 2.62617L5 1.8386L6.57515 2.62617C6.8426 2.7599 7.1574 2.7599 7.42485 2.62617L9 1.8386L10.5751 2.62617C10.8426 2.7599 11.1574 2.7599 11.4249 2.62617L13 1.8386L14.5751 2.62617C14.8426 2.7599 15.1574 2.7599 15.4249 2.62617L16.25 2.2136V17.7865L15.4249 17.374C15.1574 17.2402 14.8426 17.2402 14.5751 17.374L13 18.1615L11.4249 17.374C11.1574 17.2402 10.8426 17.2402 10.5751 17.374L9 18.1615L7.42485 17.374C7.1574 17.2402 6.8426 17.2402 6.57515 17.374L5 18.1615L3.42485 17.374C3.1574 17.2402 2.8426 17.2402 2.57515 17.374L1.75 17.7865V2.2136L2.57515 2.62617C2.8426 2.7599 3.1574 2.7599 3.42485 2.62617ZM5.42485 0.373976C5.1574 0.24025 4.8426 0.24025 4.57515 0.373976L3 1.16155L1.62485 0.473976C0.993196 0.158148 0.25 0.617469 0.25 1.32368V18.6765C0.25 19.3827 0.993199 19.842 1.62485 19.5262L3 18.8386L4.57515 19.6262C4.8426 19.7599 5.1574 19.7599 5.42485 19.6262L7 18.8386L8.57515 19.6262C8.8426 19.7599 9.1574 19.7599 9.42485 19.6262L11 18.8386L12.5751 19.6262C12.8426 19.7599 13.1574 19.7599 13.4249 19.6262L15 18.8386L16.3751 19.5262C17.0068 19.842 17.75 19.3827 17.75 18.6765V1.32368C17.75 0.617466 17.0068 0.158149 16.3751 0.473976L15 1.16155L13.4249 0.373976C13.1574 0.24025 12.8426 0.24025 12.5751 0.373976L11 1.16155L9.42485 0.373976C9.1574 0.24025 8.8426 0.24025 8.57515 0.373976L7 1.16155L5.42485 0.373976ZM6.36081 6.05053C7.31899 5.4103 8.47724 5.14023 9.61977 5.29065C10.7623 5.44107 11.8112 6.00171 12.571 6.86812C13.3308 7.73453 13.7498 8.84762 13.7498 10C13.7498 11.1524 13.3308 12.2655 12.571 13.1319C11.8112 13.9983 10.7623 14.559 9.61977 14.7094C8.47724 14.8598 7.31899 14.5897 6.36081 13.9495C5.40263 13.3093 4.70988 12.3425 4.41162 11.2294L5.86051 10.8412C6.06458 11.6028 6.53857 12.2642 7.19417 12.7023C7.84976 13.1403 8.64225 13.3251 9.42398 13.2222C10.2057 13.1193 10.9234 12.7357 11.4432 12.1429C11.9631 11.5501 12.2498 10.7885 12.2498 10C12.2498 9.21153 11.9631 8.44995 11.4432 7.85714C10.9234 7.26433 10.2057 6.88073 9.42398 6.77782C8.64225 6.6749 7.84976 6.85968 7.19417 7.29774C6.99709 7.42942 6.81642 7.58129 6.65456 7.75H8V9.25H4.25V5.5H5.75V6.53568C5.93888 6.3585 6.14298 6.19608 6.36081 6.05053Z" fill="black"/>
</svg>
