<svg width="20" height="20" viewBox="0 0 20 20" fill="none" xmlns="http://www.w3.org/2000/svg">
<path fill-rule="evenodd" clip-rule="evenodd" d="M10 0.25C8.71961 0.25 7.45176 0.502191 6.26884 0.992175C5.08591 1.48216 4.01108 2.20034 3.10571 3.10571C2.20034 4.01108 1.48216 5.08591 0.992174 6.26884C0.502191 7.45176 0.25 8.71961 0.25 10C0.25 12.5859 1.27723 15.0658 3.10571 16.8943C4.93419 18.7228 7.41414 19.75 10 19.75C12.5859 19.75 15.0658 18.7228 16.8943 16.8943C18.7228 15.0658 19.75 12.5859 19.75 10H18.25C18.25 12.188 17.3808 14.2865 15.8336 15.8336C14.2865 17.3808 12.188 18.25 10 18.25C7.81196 18.25 5.71354 17.3808 4.16637 15.8336C2.61919 14.2865 1.75 12.188 1.75 10C1.75 8.9166 1.96339 7.8438 2.37799 6.84286C2.79259 5.84193 3.40029 4.93245 4.16637 4.16637C4.93245 3.40029 5.84193 2.7926 6.84286 2.37799C7.8438 1.96339 8.91659 1.75 10 1.75C11.0834 1.75 12.1562 1.96339 13.1571 2.37799C14.1581 2.79259 15.0675 3.40029 15.8336 4.16637C16.5997 4.93245 17.2074 5.84193 17.622 6.84286C18.0366 7.8438 18.25 8.91659 18.25 10H19.75C19.75 8.71961 19.4978 7.45176 19.0078 6.26884C18.5178 5.08591 17.7997 4.01108 16.8943 3.10571C15.9889 2.20034 14.9141 1.48216 13.7312 0.992174C12.5482 0.502191 11.2804 0.25 10 0.25ZM9.25 14V8H10.75V14H9.25ZM10 7C10.5523 7 11 6.55229 11 6C11 5.44772 10.5523 5 10 5C9.44771 5 9 5.44772 9 6C9 6.55229 9.44771 7 10 7Z" fill="black"/>
</svg>
