<svg width="20" height="20" viewBox="0 0 20 20" fill="none" xmlns="http://www.w3.org/2000/svg">
<path fill-rule="evenodd" clip-rule="evenodd" d="M0.25 4C0.25 1.92893 1.92893 0.25 4 0.25H16C18.0711 0.25 19.75 1.92893 19.75 4V16C19.75 18.0711 18.0711 19.75 16 19.75H4C1.92893 19.75 0.25 18.0711 0.25 16V4ZM4 1.75C2.75736 1.75 1.75 2.75736 1.75 4V16C1.75 17.2426 2.75736 18.25 4 18.25H16C17.2426 18.25 18.25 17.2426 18.25 16V4C18.25 2.75736 17.2426 1.75 16 1.75H4ZM16 5C16 5.55228 15.5523 6 15 6C14.4477 6 14 5.55228 14 5C14 4.44772 14.4477 4 15 4C15.5523 4 16 4.44772 16 5ZM6.75 10C6.75 8.20507 8.20507 6.75 10 6.75C11.7949 6.75 13.25 8.20507 13.25 10C13.25 11.7949 11.7949 13.25 10 13.25C8.20507 13.25 6.75 11.7949 6.75 10ZM10 5.25C7.37665 5.25 5.25 7.37665 5.25 10C5.25 12.6234 7.37665 14.75 10 14.75C12.6234 14.75 14.75 12.6234 14.75 10C14.75 7.37665 12.6234 5.25 10 5.25Z" fill="black"/>
</svg>
