<svg width="18" height="16" viewBox="0 0 18 16" fill="none" xmlns="http://www.w3.org/2000/svg">
<path d="M0 2C0 1.17157 0.671573 0.5 1.5 0.5V0.5C2.32843 0.5 3 1.17157 3 2V2C3 2.82843 2.32843 3.5 1.5 3.5V3.5C0.671573 3.5 0 2.82843 0 2V2Z" fill="black"/>
<path d="M5 1H18V3H5V1Z" fill="black"/>
<path d="M0 8C0 7.17157 0.671573 6.5 1.5 6.5V6.5C2.32843 6.5 3 7.17157 3 8V8C3 8.82843 2.32843 9.5 1.5 9.5V9.5C0.671573 9.5 0 8.82843 0 8V8Z" fill="black"/>
<path d="M0 14C0 13.1716 0.671573 12.5 1.5 12.5V12.5C2.32843 12.5 3 13.1716 3 14V14C3 14.8284 2.32843 15.5 1.5 15.5V15.5C0.671573 15.5 0 14.8284 0 14V14Z" fill="black"/>
<path d="M5 7H18V9H5V7Z" fill="black"/>
<path d="M5 13H18V15H5V13Z" fill="black"/>
</svg>
