<svg width="18" height="22" viewBox="0 0 18 22" fill="none" xmlns="http://www.w3.org/2000/svg">
<path fill-rule="evenodd" clip-rule="evenodd" d="M1.75 9C1.75 4.91421 4.91421 1.75 9 1.75C13.0858 1.75 16.25 4.91421 16.25 9C16.25 11.4781 14.9623 13.8652 13.3689 15.8555C11.7861 17.8324 9.97655 19.3244 9.09593 19.9982C9.03602 20.0441 8.96398 20.0441 8.90407 19.9982C8.02345 19.3244 6.21389 17.8324 4.63112 15.8555C3.03767 13.8652 1.75 11.4781 1.75 9ZM9 0.25C4.08579 0.25 0.25 4.08579 0.25 9C0.25 11.979 1.78181 14.6967 3.46018 16.793C5.14923 18.9026 7.06383 20.4789 7.99258 21.1895C8.59045 21.647 9.40955 21.647 10.0074 21.1895C10.9362 20.4789 12.8508 18.9026 14.5398 16.793C16.2182 14.6967 17.75 11.979 17.75 9C17.75 4.08579 13.9142 0.25 9 0.25ZM9 12C10.6569 12 12 10.6569 12 9C12 7.34315 10.6569 6 9 6C7.34315 6 6 7.34315 6 9C6 10.6569 7.34315 12 9 12Z" fill="black"/>
</svg>
