<svg width="19" height="20" viewBox="0 0 19 20" fill="none" xmlns="http://www.w3.org/2000/svg">
<path fill-rule="evenodd" clip-rule="evenodd" d="M1.75 18L1.75 2C1.75 1.86193 1.86193 1.75 2 1.75L16 1.75C16.1381 1.75 16.25 1.86193 16.25 2V5L17.75 5V2C17.75 1.0335 16.9665 0.25 16 0.25H2C1.0335 0.25 0.25 1.0335 0.25 2V18C0.25 18.9665 1.0335 19.75 2 19.75H16C16.9665 19.75 17.75 18.9665 17.75 18V15H16.25V18C16.25 18.1381 16.1381 18.25 16 18.25H2C1.86193 18.25 1.75 18.1381 1.75 18ZM18.0607 10.0001L13.5303 5.46973L12.4697 6.53039L15.1893 9.25006H7V10.7501H15.1893L12.4697 13.4697L13.5303 14.5304L18.0607 10.0001Z" fill="black"/>
</svg>
