<svg width="22" height="16" viewBox="0 0 22 16" fill="none" xmlns="http://www.w3.org/2000/svg">
<path fill-rule="evenodd" clip-rule="evenodd" d="M18.8616 1.75H3.13791L10.8436 7.91455C10.9349 7.98759 11.0646 7.98759 11.1559 7.91455L18.8616 1.75ZM1.75 2.56061V14C1.75 14.1381 1.86193 14.25 2 14.25H20C20.1381 14.25 20.25 14.1381 20.25 14V2.56024L12.093 9.08585C11.4539 9.59716 10.5457 9.59716 9.90655 9.08585L1.75 2.56061ZM20 0.25H2C1.0335 0.25 0.25 1.0335 0.25 2V14C0.25 14.9665 1.0335 15.75 2 15.75H20C20.9665 15.75 21.75 14.9665 21.75 14V2C21.75 1.0335 20.9665 0.25 20 0.25Z" fill="black"/>
</svg>
