<svg width="16" height="16" viewBox="0 0 16 16" fill="none" xmlns="http://www.w3.org/2000/svg">
<path fill-rule="evenodd" clip-rule="evenodd" d="M14.2851 3.60017L13.3041 4.7447C13.6431 5.29586 13.8986 5.90389 14.0529 6.55114L15.5557 6.66674L16.0002 7.11119V8.88899L15.5557 9.33344L14.0529 9.44905C13.8985 10.0962 13.643 10.7041 13.304 11.2552L14.2851 12.3998V13.0284L13.028 14.2855H12.3995L11.2547 13.3042C10.7038 13.643 10.096 13.8983 9.44907 14.0526L9.33344 15.5557L8.88899 16.0002H7.11119L6.66674 15.5557L6.55112 14.0526C5.904 13.8982 5.2961 13.6428 4.74504 13.3039L3.59984 14.2855H2.97129L1.7142 13.0284V12.3998L2.6959 11.2545C2.35717 10.7036 2.10185 10.0959 1.94754 9.44907L0.44445 9.33344L0 8.88899V7.11119L0.44445 6.66674L1.94746 6.55113C2.10175 5.90416 2.35708 5.29639 2.69584 4.74542L1.7142 3.60017V2.97163L2.97129 1.71453H3.59984L4.74493 2.69604C5.29603 2.35708 5.90397 2.10161 6.55115 1.94724L6.66674 0.44445L7.11119 0H8.88899L9.33344 0.44445L9.44904 1.94719C10.096 2.1015 10.7039 2.35685 11.2548 2.69566L12.3995 1.71453H13.028L14.2851 2.97163V3.60017ZM7.99985 10.6665C9.47262 10.6665 10.6665 9.47262 10.6665 7.99985C10.6665 6.52707 9.47262 5.33315 7.99985 5.33315C6.52707 5.33315 5.33315 6.52707 5.33315 7.99985C5.33315 9.47262 6.52707 10.6665 7.99985 10.6665Z" fill="black"/>
</svg>
