<svg width="22" height="22" viewBox="0 0 22 22" fill="none" xmlns="http://www.w3.org/2000/svg">
<path fill-rule="evenodd" clip-rule="evenodd" d="M0.25 2C0.25 1.0335 1.0335 0.25 2 0.25H20C20.9665 0.25 21.75 1.0335 21.75 2V16C21.75 16.9665 20.9665 17.75 20 17.75H16.166L16 18.6964V22L13 20.2047L10 22V18.6974L9.83381 17.75H2C1.0335 17.75 0.25 16.9665 0.25 16V2ZM17.6109 16.25L16.9999 15L17.7552 13.4549L16.236 12.6489L15.9388 10.9549L14.236 11.1958L12.9999 10L11.7638 11.1958L10.061 10.9549L9.76384 12.6489L8.24463 13.4549L8.99991 15L8.38888 16.25H2C1.86193 16.25 1.75 16.1381 1.75 16V2C1.75 1.86193 1.86193 1.75 2 1.75H20C20.1381 1.75 20.25 1.86193 20.25 2V16C20.25 16.1381 20.1381 16.25 20 16.25H17.6109ZM16 5.75H6V4.25H16V5.75ZM4 9.75H12V8.25H4V9.75ZM14 9.75V8.25L18 8.25V9.75H14ZM4 13.75H7V12.25H4V13.75ZM13.72 12.7837L14.7121 12.6434L14.8852 13.6302L15.7703 14.0998L15.3303 15L15.7703 15.9002L14.8852 16.3698L14.7121 17.3566L13.72 17.2163L12.9999 17.913L12.2798 17.2163L11.2877 17.3566L11.1146 16.3698L10.2295 15.9002L10.6695 15L10.2295 14.0998L11.1146 13.6302L11.2877 12.6434L12.2798 12.7837L12.9999 12.087L13.72 12.7837Z" fill="black"/>
</svg>
