<svg width="22" height="15" viewBox="0 0 22 15" fill="none" xmlns="http://www.w3.org/2000/svg">
<path fill-rule="evenodd" clip-rule="evenodd" d="M2 1.75H20C20.1381 1.75 20.25 1.86193 20.25 2V13C20.25 13.1381 20.1381 13.25 20 13.25H2C1.86193 13.25 1.75 13.1381 1.75 13V2C1.75 1.86193 1.86193 1.75 2 1.75ZM20 0.25H2C1.0335 0.25 0.25 1.0335 0.25 2V13C0.25 13.9665 1.0335 14.75 2 14.75H20C20.9665 14.75 21.75 13.9665 21.75 13V2C21.75 1.0335 20.9665 0.25 20 0.25ZM5.5 9C6.32843 9 7 8.32843 7 7.5C7 6.67157 6.32843 6 5.5 6C4.67157 6 4 6.67157 4 7.5C4 8.32843 4.67157 9 5.5 9ZM12.5 7.5C12.5 8.32843 11.8284 9 11 9C10.1716 9 9.5 8.32843 9.5 7.5C9.5 6.67157 10.1716 6 11 6C11.8284 6 12.5 6.67157 12.5 7.5ZM16.5 9C17.3284 9 18 8.32843 18 7.5C18 6.67157 17.3284 6 16.5 6C15.6716 6 15 6.67157 15 7.5C15 8.32843 15.6716 9 16.5 9Z" fill="black"/>
</svg>
