<svg width="22" height="20" viewBox="0 0 22 20" fill="none" xmlns="http://www.w3.org/2000/svg">
<path fill-rule="evenodd" clip-rule="evenodd" d="M0.25 2C0.25 1.0335 1.0335 0.25 2 0.25H20C20.9665 0.25 21.75 1.0335 21.75 2V12C21.75 12.9665 20.9665 13.75 20 13.75H2C1.0335 13.75 0.25 12.9665 0.25 12V2ZM2.14805 10.2284C2.01835 10.1746 1.88533 10.1302 1.75 10.0953V3.90474C1.88533 3.8698 2.01835 3.82536 2.14805 3.77164C2.51203 3.62087 2.84274 3.3999 3.12132 3.12132C3.3999 2.84274 3.62087 2.51203 3.77164 2.14805C3.82536 2.01835 3.8698 1.88533 3.90474 1.75H18.0953C18.1302 1.88533 18.1746 2.01835 18.2284 2.14805C18.3791 2.51203 18.6001 2.84274 18.8787 3.12132C19.1573 3.3999 19.488 3.62087 19.8519 3.77164C19.9817 3.82536 20.1147 3.8698 20.25 3.90474V10.0953C20.1147 10.1302 19.9817 10.1746 19.8519 10.2284C19.488 10.3791 19.1573 10.6001 18.8787 10.8787C18.6001 11.1573 18.3791 11.488 18.2284 11.8519C18.1746 11.9817 18.1302 12.1147 18.0953 12.25H3.90474C3.8698 12.1147 3.82536 11.9817 3.77164 11.8519C3.62087 11.488 3.3999 11.1573 3.12132 10.8787C2.84274 10.6001 2.51203 10.3791 2.14805 10.2284ZM18.25 17.3155V15H19.75V17.3155C19.75 18.6668 18.3328 19.4432 17.1919 18.9668C11.9082 16.7607 4.63893 16.75 0.5 16.75V15.25H0.555094C4.63619 15.25 12.1829 15.2499 17.7698 17.5826C17.8799 17.6286 18.0054 17.6156 18.1074 17.5523C18.2055 17.4914 18.25 17.4062 18.25 17.3155ZM11 10C12.6569 10 14 8.65685 14 7C14 5.34315 12.6569 4 11 4C9.34315 4 8 5.34315 8 7C8 8.65685 9.34315 10 11 10Z" fill="black"/>
</svg>
