<svg width="22" height="18" viewBox="0 0 22 18" fill="none" xmlns="http://www.w3.org/2000/svg">
<path fill-rule="evenodd" clip-rule="evenodd" d="M2 0.25C1.0335 0.25 0.25 1.0335 0.25 2V16C0.25 16.9665 1.0335 17.75 2 17.75H20C20.9665 17.75 21.75 16.9665 21.75 16V2C21.75 1.0335 20.9665 0.25 20 0.25H2ZM1.75 2C1.75 1.86193 1.86193 1.75 2 1.75H20C20.1381 1.75 20.25 1.86193 20.25 2V5.25H1.75V2ZM1.75 6.75V16C1.75 16.1381 1.86193 16.25 2 16.25H20C20.1381 16.25 20.25 16.1381 20.25 16V6.75H1.75ZM5 13.75H3V12.25H5V13.75ZM6 13.75H8V12.25H6V13.75ZM11 13.75H9V12.25H11V13.75ZM12 13.75H14V12.25H12V13.75Z" fill="black"/>
</svg>
