<svg width="23" height="18" viewBox="0 0 23 18" fill="none" xmlns="http://www.w3.org/2000/svg">
<path fill-rule="evenodd" clip-rule="evenodd" d="M8.75 2C8.75 1.86193 8.86193 1.75 9 1.75H21C21.1381 1.75 21.25 1.86193 21.25 2V3.25H8.75V2ZM21.25 11V4.75H8.75V8V9V9.55239C8.75 9.75975 8.9974 9.88708 9.16962 9.74772C10.1283 8.97201 11.124 8.18273 11.5839 7.87607C12.0716 7.55092 12.8115 7.25 13.5 7.25C14.2788 7.25 14.8535 7.64759 15.2107 8.09398C15.5488 8.51661 15.75 9.05257 15.75 9.5V10C15.75 10.06 15.7504 10.1201 15.7508 10.1801C15.7531 10.5369 15.7554 10.894 15.6759 11.25H21C21.1381 11.25 21.25 11.1381 21.25 11ZM13.5202 13.6998L14.755 12.75H21C21.9665 12.75 22.75 11.9665 22.75 11V2C22.75 1.0335 21.9665 0.25 21 0.25H9C8.0335 0.25 7.25 1.0335 7.25 2V2.25H5.04002L0.491211 6.4489L1.50863 7.5511L5.62649 3.75H7.25V8V9V9.55239C7.25 11.0356 8.9712 11.8378 10.1132 10.9138C11.0942 10.12 12.0274 9.38326 12.4161 9.12408C12.7345 8.91176 13.1885 8.75 13.5 8.75C13.7212 8.75 13.8965 8.85241 14.0393 9.03102C14.2012 9.23339 14.25 9.44743 14.25 9.5V10C14.25 10.7897 14.2468 10.9351 14.1322 11.1313C14.1118 11.1663 14.0856 11.2054 14.0511 11.25H14V11.3129C13.9271 11.3986 13.8263 11.5024 13.6846 11.6315C13.4351 11.859 13.0903 12.1371 12.6039 12.5122L7.74483 16.25H0.999921V17.75H8.25501L8.45725 17.5944L8.45728 17.5945L13.4573 13.7483C13.4785 13.732 13.4994 13.7159 13.5202 13.6998Z" fill="black"/>
</svg>
