<svg width="18" height="20" viewBox="0 0 18 20" fill="none" xmlns="http://www.w3.org/2000/svg">
<path fill-rule="evenodd" clip-rule="evenodd" d="M5 1.8386L3.42485 2.62617C3.1574 2.7599 2.8426 2.7599 2.57515 2.62617L1.75 2.2136V17.7865L2.57515 17.374C2.8426 17.2402 3.1574 17.2402 3.42485 17.374L5 18.1615L6.57515 17.374C6.8426 17.2402 7.1574 17.2402 7.42485 17.374L9 18.1615L10.5751 17.374C10.8426 17.2402 11.1574 17.2402 11.4249 17.374L13 18.1615L14.5751 17.374C14.8426 17.2402 15.1574 17.2402 15.4249 17.374L16.25 17.7865V2.2136L15.4249 2.62617C15.1574 2.7599 14.8426 2.7599 14.5751 2.62617L13 1.8386L11.4249 2.62617C11.1574 2.7599 10.8426 2.7599 10.5751 2.62617L9 1.8386L7.42485 2.62617C7.1574 2.7599 6.8426 2.7599 6.57515 2.62617L5 1.8386ZM4.57515 0.373976C4.8426 0.24025 5.1574 0.24025 5.42485 0.373976L7 1.16155L8.57515 0.373976C8.8426 0.24025 9.1574 0.24025 9.42485 0.373976L11 1.16155L12.5751 0.373976C12.8426 0.24025 13.1574 0.24025 13.4249 0.373976L15 1.16155L16.3751 0.473976C17.0068 0.158149 17.75 0.617466 17.75 1.32368V18.6765C17.75 19.3827 17.0068 19.842 16.3751 19.5262L15 18.8386L13.4249 19.6262C13.1574 19.7599 12.8426 19.7599 12.5751 19.6262L11 18.8386L9.42485 19.6262C9.1574 19.7599 8.8426 19.7599 8.57515 19.6262L7 18.8386L5.42485 19.6262C5.1574 19.7599 4.8426 19.7599 4.57515 19.6262L3 18.8386L1.62485 19.5262C0.993199 19.842 0.25 19.3827 0.25 18.6765V1.32368C0.25 0.617469 0.993196 0.158148 1.62485 0.473976L3 1.16155L4.57515 0.373976ZM4 6.75V5.25H14V6.75H4ZM4 10.75H8V9.25H4V10.75ZM14 10.75H10V9.25H14V10.75ZM4 14.75H8V13.25H4V14.75Z" fill="black"/>
</svg>
