<svg width="21" height="22" viewBox="0 0 21 22" fill="none" xmlns="http://www.w3.org/2000/svg">
<path fill-rule="evenodd" clip-rule="evenodd" d="M18.1153 5.23817C16.4067 3.01146 14.0111 1.41076 11.3 0.684326L10.9118 2.13321C13.3039 2.77418 15.4177 4.18657 16.9253 6.15131C18.4329 8.11606 19.2501 10.5234 19.2501 12.9999H20.7501C20.7501 10.1932 19.824 7.46489 18.1153 5.23817ZM15.7353 7.06446C14.4287 5.36168 12.5967 4.13761 10.5236 3.5821L10.1353 5.03099C11.8896 5.50104 13.4397 6.53678 14.5453 7.9776C15.6508 9.41841 16.2501 11.1838 16.2501 12.9999H17.7501C17.7501 10.8536 17.0419 8.76724 15.7353 7.06446ZM13.3552 8.89074C12.4507 7.71189 11.1824 6.86446 9.74712 6.47988L9.35889 7.92877C10.4752 8.22789 11.4616 8.887 12.1652 9.80388C12.8687 10.7208 13.2501 11.8442 13.2501 12.9999H14.7501C14.7501 11.514 14.2598 10.0696 13.3552 8.89074ZM3.27534 3.93409C4.06155 3.67599 5.07591 3.73538 5.77602 3.83549C5.80808 3.84007 5.83407 3.85406 5.85621 3.87826C5.87996 3.90419 5.90044 3.94405 5.90564 3.99517L6.29381 7.81308C6.3009 7.88286 6.27627 7.95445 6.22218 8.00777L5.39119 8.82689C5.01766 9.19509 4.80107 9.73782 4.89484 10.3057C5.01978 11.0624 5.28824 11.7023 6.21239 13.2805C7.62602 15.6946 8.67109 16.0024 9.20455 15.9321L9.22032 15.93L9.25022 15.9248L11.3005 15.5205C11.3831 15.5042 11.4671 15.5268 11.5279 15.5782L14.1774 17.8176C14.2186 17.8524 14.2388 17.8909 14.2462 17.9197C14.2529 17.9458 14.2503 17.9656 14.2414 17.9847C14.0121 18.4772 13.6372 19.1443 13.1344 19.64C12.8397 19.9306 12.202 20.1301 11.3678 20.1481C10.5567 20.1656 9.80125 20.0061 9.43806 19.8272C8.58382 19.4064 6.58387 18.0192 4.13612 14.1025C1.76912 10.3151 1.76869 7.21526 1.76856 6.24252L1.76856 6.2129C1.76822 5.38916 2.1881 4.291 3.27534 3.93409ZM5.98834 2.35059C5.23959 2.24353 3.93696 2.13813 2.80749 2.50892C0.859139 3.14851 0.268074 5.04324 0.268555 6.21351L0.268562 6.23078C0.268926 7.30672 0.270091 10.7468 2.86409 14.8975C5.41597 18.9808 7.60568 20.5967 8.7752 21.1728C9.42389 21.4924 10.44 21.6685 11.4002 21.6477C12.3374 21.6275 13.4709 21.4148 14.1876 20.7081C14.8757 20.0296 15.3409 19.1768 15.6012 18.6178C15.9331 17.9051 15.683 17.1261 15.1457 16.672L12.4961 14.4326C12.085 14.0851 11.5373 13.9449 11.0103 14.0488L9.09268 14.427C8.92829 14.3547 8.3786 14.0113 7.5068 12.5225C6.59395 10.9636 6.45164 10.5267 6.3748 10.0614C6.36891 10.0257 6.37907 9.95935 6.4442 9.89515L7.27519 9.07602C7.65034 8.70622 7.83956 8.18703 7.78612 7.66136L7.39794 3.84345C7.32361 3.11237 6.78121 2.46396 5.98834 2.35059ZM9.13253 14.442C9.14068 14.4432 9.14471 14.4444 9.14469 14.4447C9.14467 14.445 9.14059 14.4444 9.13253 14.442Z" fill="black"/>
</svg>
