<svg width="19" height="19" viewBox="0 0 19 19" fill="none" xmlns="http://www.w3.org/2000/svg">
<path fill-rule="evenodd" clip-rule="evenodd" d="M1.75 8C1.75 4.54822 4.54822 1.75 8 1.75C11.4518 1.75 14.25 4.54822 14.25 8C14.25 11.4518 11.4518 14.25 8 14.25C4.54822 14.25 1.75 11.4518 1.75 8ZM8 0.25C3.71979 0.25 0.25 3.71979 0.25 8C0.25 12.2802 3.71979 15.75 8 15.75C9.87001 15.75 11.5853 15.0877 12.9242 13.9848L17.4697 18.5304L18.5304 17.4697L13.9848 12.9242C15.0877 11.5853 15.75 9.87001 15.75 8C15.75 3.71979 12.2802 0.25 8 0.25Z" fill="black"/>
</svg>
