<svg width="22" height="20" viewBox="0 0 22 20" fill="none" xmlns="http://www.w3.org/2000/svg">
<path fill-rule="evenodd" clip-rule="evenodd" d="M2.72076 0.25C1.96751 0.25 1.29876 0.732003 1.06056 1.4466L0.339804 3.60888C0.280324 3.78732 0.25 3.97418 0.25 4.16228V6C0.25 6.6981 0.658763 7.30073 1.25 7.58159V18C1.25 18.9665 2.0335 19.75 3 19.75H11.25H16.75H19C19.9665 19.75 20.75 18.9665 20.75 18V7.58159C21.3412 7.30073 21.75 6.6981 21.75 6V4.16228C21.75 3.97418 21.7197 3.78732 21.6602 3.60888L20.9394 1.4466C20.7012 0.732003 20.0325 0.25 19.2792 0.25H2.72076ZM15.25 18.25H12.75V11.75H15.25V18.25ZM16.75 10.25V18.25H19C19.1381 18.25 19.25 18.1381 19.25 18V7.75H18.4142C17.9501 7.75 17.505 7.56563 17.1768 7.23744L17 7.06066L16.8232 7.23744C16.495 7.56563 16.0499 7.75 15.5858 7.75H14.4142C13.9501 7.75 13.505 7.56563 13.1768 7.23744L13 7.06066L12.8232 7.23744C12.495 7.56563 12.0499 7.75 11.5858 7.75H10.4142C9.95008 7.75 9.50496 7.56563 9.17678 7.23744L9 7.06066L8.82322 7.23744C8.49503 7.56563 8.04991 7.75 7.58579 7.75H6.41421C5.95008 7.75 5.50497 7.56563 5.17678 7.23744L5 7.06066L4.82322 7.23744C4.49503 7.56563 4.04991 7.75 3.58579 7.75H2.75V18C2.75 18.1381 2.86193 18.25 3 18.25H11.25V10.25H16.75ZM6.23744 6.17678L5.75 5.68934V5H4.25V5.68934L3.76256 6.17678C3.71568 6.22366 3.65209 6.25 3.58579 6.25H2C1.86193 6.25 1.75 6.13807 1.75 6V4.16228C1.75 4.13541 1.75433 4.10871 1.76283 4.08322L2.48359 1.92094C2.51762 1.81886 2.61315 1.75 2.72076 1.75H19.2792C19.3868 1.75 19.4824 1.81886 19.5164 1.92094L20.2372 4.08322C20.2457 4.10871 20.25 4.13541 20.25 4.16228V6C20.25 6.13807 20.1381 6.25 20 6.25H18.4142C18.3479 6.25 18.2843 6.22366 18.2374 6.17678L17.75 5.68934V5H16.25V5.68934L15.7626 6.17678C15.7157 6.22366 15.6521 6.25 15.5858 6.25H14.4142C14.3479 6.25 14.2843 6.22366 14.2374 6.17678L13.75 5.68934V5H12.25V5.68934L11.7626 6.17678C11.7157 6.22366 11.6521 6.25 11.5858 6.25H10.4142C10.3479 6.25 10.2843 6.22366 10.2374 6.17678L9.75 5.68934V5H8.25V5.68934L7.76256 6.17678C7.71568 6.22366 7.65209 6.25 7.58579 6.25H6.41421C6.34791 6.25 6.28432 6.22366 6.23744 6.17678ZM9.75 10.25H4.25V15.75H9.75V10.25ZM5.75 14.25V11.75H8.25V14.25H5.75Z" fill="black"/>
</svg>
