<svg width="20" height="20" viewBox="0 0 20 20" fill="none" xmlns="http://www.w3.org/2000/svg">
<path fill-rule="evenodd" clip-rule="evenodd" d="M9.99972 3.22997L8.20603 8.25231L7.49972 8.75006H2.80611L6.44085 11.3935L6.72087 12.2061L5.2814 17.2442L9.5837 14.376H10.4157L14.718 17.2442L13.2786 12.2061L13.5586 11.3935L17.1933 8.75006H12.4997L11.7934 8.25231L9.99972 3.22997ZM6.97118 7.25005L9.29342 0.747803H10.706L13.0283 7.25005H19.4997L19.9409 8.60661L14.8649 12.2982L16.7209 18.794L15.5837 19.6241L9.99972 15.9014L4.41575 19.6241L3.27858 18.794L5.13453 12.2982L0.0585938 8.60661L0.499723 7.25005H6.97118Z" fill="black"/>
</svg>
