<svg width="18" height="20" viewBox="0 0 18 20" fill="none" xmlns="http://www.w3.org/2000/svg">
<path fill-rule="evenodd" clip-rule="evenodd" d="M17.75 0.25H0.25V1.00073V10C0.25 11.4534 0.830783 12.7888 1.63432 13.9439C2.43852 15.1 3.49564 16.1191 4.52706 16.9571C5.56163 17.7977 6.59224 18.4736 7.36216 18.9388C7.74793 19.1719 8.07025 19.3532 8.29752 19.477C8.41121 19.5389 8.50125 19.5865 8.56371 19.619C8.59494 19.6353 8.61929 19.6478 8.63626 19.6565L8.65614 19.6666L8.66417 19.6706L9 19.8385L9.33541 19.6708L9 19C9.33541 19.6708 9.33621 19.6704 9.33643 19.6703L9.34386 19.6666L9.36374 19.6565C9.38071 19.6478 9.40506 19.6353 9.4363 19.619C9.49875 19.5865 9.58879 19.5389 9.70248 19.477C9.92975 19.3532 10.2521 19.1719 10.6378 18.9388C11.4078 18.4736 12.4384 17.7977 13.4729 16.9571C14.5044 16.1191 15.5615 15.1 16.3657 13.9439C17.1692 12.7888 17.75 11.4534 17.75 10V1V0.25ZM9 19L8.66417 19.6706C8.6644 19.6707 8.66459 19.6708 9 19ZM1.75 10V1.75H16.25V10C16.25 11.0466 15.8308 12.0862 15.1343 13.0873C14.4385 14.0875 13.4956 15.0059 12.5271 15.7929C11.5616 16.5773 10.5922 17.2139 9.86216 17.6549C9.50649 17.8698 9.20951 18.0372 9 18.1515C8.79049 18.0372 8.49351 17.8698 8.13784 17.6549C7.40776 17.2139 6.43837 16.5773 5.47295 15.7929C4.50436 15.0059 3.56148 14.0875 2.86568 13.0873C2.16922 12.0862 1.75 11.0466 1.75 10ZM8.00006 13.0607L14.5304 6.53039L13.4697 5.46973L8.00006 10.9394L5.03039 7.96973L3.96973 9.03039L8.00006 13.0607Z" fill="black"/>
</svg>
