<svg width="20" height="20" viewBox="0 0 20 20" fill="none" xmlns="http://www.w3.org/2000/svg">
<path fill-rule="evenodd" clip-rule="evenodd" d="M1.75 10C1.75 5.44365 5.44365 1.75 10 1.75C14.5563 1.75 18.25 5.44365 18.25 10C18.25 14.5563 14.5563 18.25 10 18.25C5.44365 18.25 1.75 14.5563 1.75 10ZM10 0.249999C4.61522 0.249999 0.249999 4.61522 0.249999 10C0.249998 15.3848 4.61522 19.75 10 19.75C15.3848 19.75 19.75 15.3848 19.75 10C19.75 4.61522 15.3848 0.25 10 0.249999ZM5.46973 13.4697L8.9394 10.0001L5.46973 6.53039L6.53039 5.46973L10.0001 8.9394L13.4697 5.46973L14.5304 6.53039L11.0607 10.0001L14.5304 13.4697L13.4697 14.5304L10.0001 11.0607L6.53039 14.5304L5.46973 13.4697Z" fill="black"/>
</svg>
