<svg width="21" height="22" viewBox="0 0 21 22" fill="none" xmlns="http://www.w3.org/2000/svg">
<path fill-rule="evenodd" clip-rule="evenodd" d="M20.8967 12.3207L20.9762 7.71553H21C21 3.16546 17.9728 -0.0227416 12.395 0.024491C12.395 0.024491 9.01816 -0.0306137 7.89784 0.024491C2.55051 0.292142 0 3.48034 0 7.84936V11.6673C0.0172603 13.2168 0.509911 14.7244 1.41251 15.9898C2.31512 17.2553 3.58495 18.2188 5.05335 18.7522V21.1138C5.05721 21.2948 5.11575 21.4705 5.2214 21.6182C5.32705 21.7659 5.47497 21.8788 5.64605 21.9424C5.81712 22.0059 6.0035 22.0172 6.18112 21.9748C6.35874 21.9323 6.51943 21.8381 6.64245 21.7043L8.75596 19.2954H12.8558C17.067 19.2954 20.8967 16.4929 20.8967 12.3207ZM15.9646 10.1786V9.58028C15.9585 8.11482 15.3726 6.71018 14.3326 5.66806C13.2927 4.62594 11.8817 4.0295 10.4027 4.00684H10.0849C10.0581 4.00781 10.0318 4.01416 10.0075 4.02549C9.98325 4.03682 9.96156 4.0529 9.94374 4.07276C9.92592 4.09262 9.91235 4.11585 9.90383 4.14105C9.89532 4.16625 9.89205 4.1929 9.89421 4.21938C9.89823 4.27298 9.9226 4.32308 9.9624 4.3596C10.0022 4.39611 10.0545 4.41633 10.1087 4.41619H10.4027C11.7879 4.41618 13.1165 4.96083 14.0968 5.93054C15.077 6.90025 15.6288 8.21574 15.6309 9.58816V10.1471C15.6276 10.1736 15.6297 10.2004 15.6372 10.226C15.6447 10.2517 15.6574 10.2755 15.6745 10.2961C15.6916 10.3167 15.7128 10.3337 15.7367 10.346C15.7606 10.3582 15.7868 10.3656 15.8136 10.3675C15.8551 10.3548 15.8918 10.33 15.9187 10.2963C15.9457 10.2625 15.9617 10.2215 15.9646 10.1786ZM5.07923 5.43169C5.24609 5.26637 5.81022 4.83341 5.81022 4.83341C5.9071 4.75482 6.0189 4.69626 6.139 4.66118C6.2591 4.6261 6.38508 4.61521 6.50949 4.62915C6.63391 4.64309 6.75425 4.68158 6.86341 4.74235C6.97257 4.80312 7.06834 4.88494 7.14506 4.98298L8.43224 6.60463C8.57642 6.78997 8.64922 7.02015 8.63757 7.25387C8.62592 7.48759 8.53059 7.70955 8.36867 7.87991L7.75687 8.51755C7.67118 8.60235 7.61209 8.7099 7.58671 8.82723C7.56133 8.94456 7.57076 9.06666 7.61385 9.17881C7.87792 9.88025 8.26827 10.5284 8.76595 11.0917C9.38225 11.6678 10.0588 12.1771 10.7841 12.611C10.9533 12.7072 11.1495 12.7462 11.343 12.722C11.5366 12.6979 11.7169 12.6119 11.8568 12.4772L12.4288 11.934C12.573 11.7789 12.7685 11.6801 12.9799 11.6556C13.1912 11.631 13.4045 11.6823 13.5809 11.8002L15.2733 12.9181C15.3903 12.9959 15.4902 13.0965 15.5667 13.2138C15.6433 13.331 15.6951 13.4625 15.7188 13.6001C15.7426 13.7378 15.7379 13.8788 15.705 14.0146C15.6722 14.1504 15.6118 14.2781 15.5276 14.3901L15.2257 14.7995C14.9282 15.194 14.5014 15.4734 14.0185 15.5898C13.5356 15.7062 13.0269 15.6522 12.5798 15.4371C10.8951 14.6975 9.3521 13.6748 8.01907 12.4142C6.97186 11.2258 6.05559 9.93007 5.28581 8.54904L4.65017 7.19504C4.54214 6.96276 4.50272 6.70492 4.53647 6.45136C4.57021 6.19781 4.67575 5.95891 4.84087 5.76231C4.91091 5.64573 4.99064 5.53514 5.07923 5.43169ZM14.6138 9.73773V9.41497C14.6139 8.37785 14.2008 7.38262 13.4643 6.64559C12.7279 5.90855 11.7276 5.48929 10.6808 5.47892H10.506C10.4519 5.4829 10.4014 5.50704 10.3645 5.54648C10.3276 5.58591 10.3072 5.63772 10.3074 5.69147C10.3084 5.71905 10.315 5.74616 10.3268 5.77115C10.3386 5.79614 10.3555 5.8185 10.3762 5.83688C10.397 5.85527 10.4214 5.8693 10.4478 5.87813C10.4741 5.88696 10.5021 5.89041 10.5299 5.88827H10.6808C11.6137 5.89035 12.5078 6.25843 13.1674 6.91198C13.8271 7.56554 14.1986 8.45135 14.2007 9.37561V9.66688C14.1985 9.69377 14.2017 9.72083 14.2102 9.74648C14.2186 9.77214 14.232 9.79589 14.2498 9.81638C14.2675 9.83686 14.2891 9.85367 14.3134 9.86584C14.3377 9.87802 14.3642 9.88531 14.3914 9.88729C14.4378 9.88898 14.4834 9.87515 14.5209 9.84801C14.5583 9.82088 14.5855 9.78203 14.598 9.73773H14.6138ZM13.1121 9.00562C13.1198 9.09468 13.1198 9.18422 13.1121 9.27327H13.0963C13.0942 9.30437 13.085 9.33459 13.0693 9.36163C13.0536 9.38866 13.0319 9.41179 13.0059 9.42926C12.9798 9.44673 12.9501 9.45806 12.9189 9.46241C12.8878 9.46675 12.856 9.46399 12.8261 9.45433C12.7988 9.4505 12.7726 9.44131 12.749 9.42729C12.7254 9.41328 12.7048 9.39472 12.6885 9.37272C12.6722 9.35072 12.6605 9.32571 12.6542 9.29917C12.6478 9.27262 12.6468 9.24508 12.6513 9.21817C12.6553 9.14737 12.6553 9.07642 12.6513 9.00562C12.6524 8.78476 12.6094 8.56588 12.5248 8.36153C12.4402 8.15719 12.3157 7.97142 12.1584 7.81488C12.0012 7.65835 11.8143 7.53413 11.6084 7.44938C11.4026 7.36462 11.1819 7.32099 10.959 7.32099H10.9589H10.9033C10.8884 7.3228 10.8733 7.32298 10.8584 7.32155C10.8329 7.32399 10.8072 7.32172 10.7825 7.31484C10.7562 7.30749 10.7316 7.29503 10.7102 7.27819C10.6887 7.26134 10.6709 7.24045 10.6576 7.21671C10.6444 7.19298 10.6361 7.16688 10.6331 7.13993C10.6306 7.08521 10.6487 7.03151 10.684 6.9893C10.7192 6.9471 10.7691 6.91941 10.8238 6.91164H10.8636H10.9589H10.9986C11.5585 6.91371 12.0949 7.135 12.4908 7.52724C12.8867 7.91949 13.1101 8.4509 13.1121 9.00562Z" fill="#6D5BE6"/>
</svg>
